{
	"asset":{
		"copyright":"CC-BY-4.0",
		"generator":"Khronos glTF Blender I/O v4.5.48",
		"version":"2.0"
	},
	"extensionsUsed":[
		"KHR_materials_emissive_strength"
	],
	"scene":0,
	"scenes":[
		{
			"name":"Scene",
			"nodes":[
				0,
				1,
				2,
				3,
				4,
				5
			]
		}
	],
	"nodes":[
		{
			"mesh":0,
			"name":"IonStorm:Interior"
		},
		{
			"mesh":1,
			"name":"IonStorm:exterior1",
			"rotation":[
				0,
				-0.7071068286895752,
				0,
				0.7071068286895752
			]
		},
		{
			"mesh":2,
			"name":"IonStorm:front_window",
			"rotation":[
				0,
				-0.7071068286895752,
				0,
				0.7071068286895752
			]
		},
		{
			"mesh":3,
			"name":"IonStorm:back_window",
			"rotation":[
				0,
				-0.7071068286895752,
				0,
				0.7071068286895752
			]
		},
		{
			"mesh":4,
			"name":"IonStorm:wheels",
			"rotation":[
				0,
				-0.7071068286895752,
				0,
				0.7071068286895752
			]
		},
		{
			"mesh":5,
			"name":"IonStorm:eterior2"
		}
	],
	"materials":[
		{
			"alphaMode":"BLEND",
			"doubleSided":true,
			"emissiveFactor":[
				1,
				1,
				1
			],
			"emissiveTexture":{
				"index":0
			},
			"name":"IonStorm:Interior",
			"normalTexture":{
				"index":1
			},
			"pbrMetallicRoughness":{
				"baseColorTexture":{
					"index":2
				},
				"metallicRoughnessTexture":{
					"index":3
				}
			}
		},
		{
			"doubleSided":true,
			"emissiveFactor":[
				1,
				1,
				1
			],
			"emissiveTexture":{
				"index":4
			},
			"extensions":{
				"KHR_materials_emissive_strength":{
					"emissiveStrength":1.6999999284744263
				}
			},
			"name":"IonStorm:Shell",
			"normalTexture":{
				"index":5
			},
			"pbrMetallicRoughness":{
				"baseColorTexture":{
					"index":6
				},
				"metallicRoughnessTexture":{
					"index":7
				}
			}
		}
	],
	"meshes":[
		{
			"name":"NurbsPath.001",
			"primitives":[
				{
					"attributes":{
						"POSITION":0,
						"NORMAL":1,
						"TEXCOORD_0":2
					},
					"indices":3,
					"material":0
				}
			]
		},
		{
			"name":"NurbsPath",
			"primitives":[
				{
					"attributes":{
						"POSITION":4,
						"NORMAL":5,
						"TEXCOORD_0":6
					},
					"indices":7,
					"material":1
				}
			]
		},
		{
			"name":"NurbsPath.002",
			"primitives":[
				{
					"attributes":{
						"POSITION":8,
						"NORMAL":9,
						"TEXCOORD_0":10
					},
					"indices":11,
					"material":1
				}
			]
		},
		{
			"name":"NurbsPath.003",
			"primitives":[
				{
					"attributes":{
						"POSITION":12,
						"NORMAL":13,
						"TEXCOORD_0":14
					},
					"indices":15,
					"material":1
				}
			]
		},
		{
			"name":"NurbsPath.004",
			"primitives":[
				{
					"attributes":{
						"POSITION":16,
						"NORMAL":17,
						"TEXCOORD_0":18
					},
					"indices":19,
					"material":1
				}
			]
		},
		{
			"name":"NurbsPath.005",
			"primitives":[
				{
					"attributes":{
						"POSITION":20,
						"NORMAL":21,
						"TEXCOORD_0":22
					},
					"indices":23,
					"material":0
				}
			]
		}
	],
	"textures":[
		{
			"sampler":0,
			"source":0
		},
		{
			"sampler":0,
			"source":1
		},
		{
			"sampler":0,
			"source":2
		},
		{
			"sampler":0,
			"source":3
		},
		{
			"sampler":0,
			"source":4
		},
		{
			"sampler":0,
			"source":5
		},
		{
			"sampler":0,
			"source":6
		},
		{
			"sampler":0,
			"source":7
		}
	],
	"images":[
		{
			"mimeType":"image/png",
			"name":"ionstorm_interior_emission.png",
			"uri":"textures/ionstorm_interior_emission.png"
		},
		{
			"mimeType":"image/png",
			"name":"ionstorm_interior_normal.png",
			"uri":"textures/ionstorm_interior_normal.png"
		},
		{
			"mimeType":"image/png",
			"name":"ionstorm_interior_diffuse",
			"uri":"textures/ionstorm_interior_diffuse.png"
		},
		{
			"mimeType":"image/png",
			"name":"ionstorm_interior_roughness",
			"uri":"textures/ionstorm_interior_roughness.png"
		},
		{
			"mimeType":"image/png",
			"name":"ionstorm_exterior_emission.png",
			"uri":"textures/ionstorm_exterior_emission.png"
		},
		{
			"mimeType":"image/png",
			"name":"ionstorm_exterior_normal.png",
			"uri":"textures/ionstorm_exterior_normal.png"
		},
		{
			"mimeType":"image/png",
			"name":"ionstorm_exterior_diffuse.png",
			"uri":"textures/ionstorm_exterior_diffuse.png"
		},
		{
			"mimeType":"image/png",
			"name":"ionstorm_exterior_roughness.png",
			"uri":"textures/ionstorm_exterior_roughness.png"
		}
	],
	"accessors":[
		{
			"bufferView":0,
			"componentType":5126,
			"count":25940,
			"max":[
				1.3132975101470947,
				4.175055027008057,
				3.709362506866455
			],
			"min":[
				-1.3132975101470947,
				2.636409282684326,
				-4.4415483474731445
			],
			"type":"VEC3"
		},
		{
			"bufferView":1,
			"componentType":5126,
			"count":25940,
			"type":"VEC3"
		},
		{
			"bufferView":2,
			"componentType":5126,
			"count":25940,
			"type":"VEC2"
		},
		{
			"bufferView":3,
			"componentType":5123,
			"count":73758,
			"type":"SCALAR"
		},
		{
			"bufferView":4,
			"componentType":5126,
			"count":29853,
			"max":[
				4.787206172943115,
				4.721455097198486,
				2.4035024642944336
			],
			"min":[
				-4.950344085693359,
				1.6357219219207764,
				-2.4035024642944336
			],
			"type":"VEC3"
		},
		{
			"bufferView":5,
			"componentType":5126,
			"count":29853,
			"type":"VEC3"
		},
		{
			"bufferView":6,
			"componentType":5126,
			"count":29853,
			"type":"VEC2"
		},
		{
			"bufferView":7,
			"componentType":5123,
			"count":137220,
			"type":"SCALAR"
		},
		{
			"bufferView":8,
			"componentType":5126,
			"count":2018,
			"max":[
				3.7186784744262695,
				4.758033752441406,
				1.2165954113006592
			],
			"min":[
				-0.6121742725372314,
				3.364213705062866,
				-1.2165955305099487
			],
			"type":"VEC3"
		},
		{
			"bufferView":9,
			"componentType":5126,
			"count":2018,
			"type":"VEC3"
		},
		{
			"bufferView":10,
			"componentType":5126,
			"count":2018,
			"type":"VEC2"
		},
		{
			"bufferView":11,
			"componentType":5123,
			"count":9600,
			"type":"SCALAR"
		},
		{
			"bufferView":12,
			"componentType":5126,
			"count":974,
			"max":[
				-1.4285200834274292,
				4.4106221199035645,
				1.0418373346328735
			],
			"min":[
				-4.450563430786133,
				3.6468565464019775,
				-1.0418373346328735
			],
			"type":"VEC3"
		},
		{
			"bufferView":13,
			"componentType":5126,
			"count":974,
			"type":"VEC3"
		},
		{
			"bufferView":14,
			"componentType":5126,
			"count":974,
			"type":"VEC2"
		},
		{
			"bufferView":15,
			"componentType":5123,
			"count":4224,
			"type":"SCALAR"
		},
		{
			"bufferView":16,
			"componentType":5126,
			"count":77160,
			"max":[
				3.0220766067504883,
				3.207622528076172,
				2.0154271125793457
			],
			"min":[
				-2.8989274501800537,
				1.569462776184082,
				-2.0154271125793457
			],
			"type":"VEC3"
		},
		{
			"bufferView":17,
			"componentType":5126,
			"count":77160,
			"type":"VEC3"
		},
		{
			"bufferView":18,
			"componentType":5126,
			"count":77160,
			"type":"VEC2"
		},
		{
			"bufferView":19,
			"componentType":5125,
			"count":295860,
			"type":"SCALAR"
		},
		{
			"bufferView":20,
			"componentType":5126,
			"count":11384,
			"max":[
				1.65562903881073,
				3.51509165763855,
				4.724002838134766
			],
			"min":[
				-1.6556288003921509,
				1.7482163906097412,
				-4.225257873535156
			],
			"type":"VEC3"
		},
		{
			"bufferView":21,
			"componentType":5126,
			"count":11384,
			"type":"VEC3"
		},
		{
			"bufferView":22,
			"componentType":5126,
			"count":11384,
			"type":"VEC2"
		},
		{
			"bufferView":23,
			"componentType":5123,
			"count":49044,
			"type":"SCALAR"
		}
	],
	"bufferViews":[
		{
			"buffer":0,
			"byteLength":311280,
			"byteOffset":0,
			"target":34962
		},
		{
			"buffer":0,
			"byteLength":311280,
			"byteOffset":311280,
			"target":34962
		},
		{
			"buffer":0,
			"byteLength":207520,
			"byteOffset":622560,
			"target":34962
		},
		{
			"buffer":0,
			"byteLength":147516,
			"byteOffset":830080,
			"target":34963
		},
		{
			"buffer":0,
			"byteLength":358236,
			"byteOffset":977596,
			"target":34962
		},
		{
			"buffer":0,
			"byteLength":358236,
			"byteOffset":1335832,
			"target":34962
		},
		{
			"buffer":0,
			"byteLength":238824,
			"byteOffset":1694068,
			"target":34962
		},
		{
			"buffer":0,
			"byteLength":274440,
			"byteOffset":1932892,
			"target":34963
		},
		{
			"buffer":0,
			"byteLength":24216,
			"byteOffset":2207332,
			"target":34962
		},
		{
			"buffer":0,
			"byteLength":24216,
			"byteOffset":2231548,
			"target":34962
		},
		{
			"buffer":0,
			"byteLength":16144,
			"byteOffset":2255764,
			"target":34962
		},
		{
			"buffer":0,
			"byteLength":19200,
			"byteOffset":2271908,
			"target":34963
		},
		{
			"buffer":0,
			"byteLength":11688,
			"byteOffset":2291108,
			"target":34962
		},
		{
			"buffer":0,
			"byteLength":11688,
			"byteOffset":2302796,
			"target":34962
		},
		{
			"buffer":0,
			"byteLength":7792,
			"byteOffset":2314484,
			"target":34962
		},
		{
			"buffer":0,
			"byteLength":8448,
			"byteOffset":2322276,
			"target":34963
		},
		{
			"buffer":0,
			"byteLength":925920,
			"byteOffset":2330724,
			"target":34962
		},
		{
			"buffer":0,
			"byteLength":925920,
			"byteOffset":3256644,
			"target":34962
		},
		{
			"buffer":0,
			"byteLength":617280,
			"byteOffset":4182564,
			"target":34962
		},
		{
			"buffer":0,
			"byteLength":1183440,
			"byteOffset":4799844,
			"target":34963
		},
		{
			"buffer":0,
			"byteLength":136608,
			"byteOffset":5983284,
			"target":34962
		},
		{
			"buffer":0,
			"byteLength":136608,
			"byteOffset":6119892,
			"target":34962
		},
		{
			"buffer":0,
			"byteLength":91072,
			"byteOffset":6256500,
			"target":34962
		},
		{
			"buffer":0,
			"byteLength":98088,
			"byteOffset":6347572,
			"target":34963
		}
	],
	"samplers":[
		{
			"magFilter":9729,
			"minFilter":9987
		}
	],
	"buffers":[
		{
			"byteLength":6445660,
			"uri":"IonStorm_Sci-fi_Car.bin"
		}
	]
}
